<svg xmlns="http://www.w3.org/2000/svg" width="1400" height="900" viewBox="0 0 1400 900" role="img" aria-labelledby="title desc">
<title id="title">Trade Repo Standard Workflow 1.0 Architecture</title>
<desc id="desc">LINE to Codex runtime, Taiwan market data, Gooaye transcript workflow, AWS S3 transcript storage, MVP strategy and response delivery.</desc>
<defs><marker id="arrow" viewBox="0 0 10 10" refX="9" refY="5" markerWidth="7" markerHeight="7" orient="auto-start-reverse"><path d="M 0 0 L 10 5 L 0 10 z" fill="#555"/></marker><filter id="cardShadow" x="-5%" y="-5%" width="110%" height="110%"><feDropShadow dx="0" dy="1" stdDeviation="1.2" flood-opacity="0.18"/></filter></defs>
<rect width="1400" height="900" fill="#ffffff"/>
<text x="50" y="32" font-family="Arial, sans-serif" font-size="22" font-weight="700" fill="#222">Trade Repo Standard Workflow 1.0 Architecture</text>
<rect x="35" y="45" width="1330" height="135" rx="12" fill="#F5FFF5" stroke="#D5E8D4" stroke-width="1.5"/>
<text x="49" y="67" font-family="Arial, sans-serif" font-size="14" font-weight="700" fill="#333">LINE / Runtime Delivery</text>
<rect x="35" y="220" width="1245" height="140" rx="12" fill="#FFF9E6" stroke="#D6B656" stroke-width="1.5"/>
<text x="49" y="242" font-family="Arial, sans-serif" font-size="14" font-weight="700" fill="#333">Strategy &amp; Decision</text>
<rect x="35" y="420" width="780" height="140" rx="12" fill="#FFF5F5" stroke="#F8CECC" stroke-width="1.5"/>
<text x="49" y="442" font-family="Arial, sans-serif" font-size="14" font-weight="700" fill="#333">Taiwan Market Data Sources</text>
<rect x="35" y="610" width="1270" height="255" rx="12" fill="#F7F0FA" stroke="#D0B6D9" stroke-width="1.5"/>
<text x="49" y="632" font-family="Arial, sans-serif" font-size="14" font-weight="700" fill="#333">Gooaye Topic Research + AWS Transcript Route</text>
<path d="M 115.0 117.0 L 215.0 117.0 L 215.0 117.0 L 315.0 117.0" fill="none" stroke="#666" stroke-width="2" opacity="0.72" marker-end="url(#arrow)"/>
<path d="M 315.0 117.0 L 422.5 117.0 L 422.5 117.0 L 530.0 117.0" fill="none" stroke="#666" stroke-width="2" opacity="0.72" marker-end="url(#arrow)"/>
<path d="M 530.0 117.0 L 652.5 117.0 L 652.5 117.0 L 775.0 117.0" fill="none" stroke="#666" stroke-width="2" opacity="0.72" marker-end="url(#arrow)"/>
<path d="M 775.0 117.0 L 467.5 117.0 L 467.5 290.0 L 160.0 290.0" fill="none" stroke="#666" stroke-width="2" opacity="0.72" marker-end="url(#arrow)"/>
<path d="M 160.0 290.0 L 275.0 290.0 L 275.0 290.0 L 390.0 290.0" fill="none" stroke="#666" stroke-width="2" opacity="0.72" marker-end="url(#arrow)"/>
<path d="M 390.0 290.0 L 525.0 290.0 L 525.0 290.0 L 660.0 290.0" fill="none" stroke="#666" stroke-width="2" opacity="0.72" marker-end="url(#arrow)"/>
<path d="M 775.0 117.0 L 470.0 117.0 L 470.0 710.0 L 165.0 710.0" fill="none" stroke="#666" stroke-width="2" opacity="0.72" marker-end="url(#arrow)"/>
<path d="M 165.0 710.0 L 290.0 710.0 L 290.0 710.0 L 415.0 710.0" fill="none" stroke="#666" stroke-width="2" opacity="0.72" marker-end="url(#arrow)"/>
<path d="M 415.0 710.0 L 550.0 710.0 L 550.0 665.0 L 685.0 665.0" fill="none" stroke="#666" stroke-width="2" opacity="0.72" marker-end="url(#arrow)"/>
<rect x="512.0" y="678.5" width="76" height="18" rx="4" fill="#fff" opacity="0.9"/>
<text x="550.0" y="691.5" text-anchor="middle" font-family="Arial, sans-serif" font-size="11" fill="#555">有逐字稿</text>
<path d="M 415.0 710.0 L 550.0 710.0 L 550.0 795.0 L 685.0 795.0" fill="none" stroke="#666" stroke-width="2" opacity="0.72" marker-end="url(#arrow)"/>
<rect x="512.0" y="743.5" width="76" height="18" rx="4" fill="#fff" opacity="0.9"/>
<text x="550.0" y="756.5" text-anchor="middle" font-family="Arial, sans-serif" font-size="11" fill="#555">缺逐字稿</text>
<path d="M 685.0 795.0 L 810.0 795.0 L 810.0 795.0 L 935.0 795.0" fill="none" stroke="#666" stroke-width="2" opacity="0.72" marker-end="url(#arrow)"/>
<path d="M 935.0 795.0 L 1062.5 795.0 L 1062.5 730.0 L 1190.0 730.0" fill="none" stroke="#666" stroke-width="2" opacity="0.72" marker-end="url(#arrow)"/>
<path d="M 685.0 665.0 L 937.5 665.0 L 937.5 730.0 L 1190.0 730.0" fill="none" stroke="#666" stroke-width="2" opacity="0.72" marker-end="url(#arrow)"/>
<path d="M 1190.0 730.0 L 925.0 730.0 L 925.0 290.0 L 660.0 290.0" fill="none" stroke="#666" stroke-width="2" opacity="0.72" marker-end="url(#arrow)"/>
<path d="M 390.0 290.0 L 277.5 290.0 L 277.5 490.0 L 165.0 490.0" fill="none" stroke="#666" stroke-width="2" opacity="0.72" marker-end="url(#arrow)"/>
<rect x="239.5" y="381.0" width="76" height="18" rx="4" fill="#fff" opacity="0.9"/>
<text x="277.5" y="394.0" text-anchor="middle" font-family="Arial, sans-serif" font-size="11" fill="#555">primary data</text>
<path d="M 390.0 290.0 L 407.5 290.0 L 407.5 490.0 L 425.0 490.0" fill="none" stroke="#666" stroke-width="2" opacity="0.72" marker-end="url(#arrow)"/>
<rect x="369.5" y="381.0" width="76" height="18" rx="4" fill="#fff" opacity="0.9"/>
<text x="407.5" y="394.0" text-anchor="middle" font-family="Arial, sans-serif" font-size="11" fill="#555">產業鏈</text>
<path d="M 390.0 290.0 L 540.0 290.0 L 540.0 490.0 L 690.0 490.0" fill="none" stroke="#666" stroke-width="2" opacity="0.72" marker-end="url(#arrow)"/>
<rect x="502.0" y="381.0" width="76" height="18" rx="4" fill="#fff" opacity="0.9"/>
<text x="540.0" y="394.0" text-anchor="middle" font-family="Arial, sans-serif" font-size="11" fill="#555">缺資料才用</text>
<path d="M 165.0 490.0 L 412.5 490.0 L 412.5 290.0 L 660.0 290.0" fill="none" stroke="#666" stroke-width="2" opacity="0.72" marker-end="url(#arrow)"/>
<path d="M 425.0 490.0 L 542.5 490.0 L 542.5 290.0 L 660.0 290.0" fill="none" stroke="#666" stroke-width="2" opacity="0.72" marker-end="url(#arrow)"/>
<path d="M 690.0 490.0 L 675.0 490.0 L 675.0 290.0 L 660.0 290.0" fill="none" stroke="#666" stroke-width="2" opacity="0.72" marker-end="url(#arrow)"/>
<path d="M 660.0 290.0 L 785.0 290.0 L 785.0 290.0 L 910.0 290.0" fill="none" stroke="#666" stroke-width="2" opacity="0.72" marker-end="url(#arrow)"/>
<path d="M 910.0 290.0 L 1037.5 290.0 L 1037.5 290.0 L 1165.0 290.0" fill="none" stroke="#666" stroke-width="2" opacity="0.72" marker-end="url(#arrow)"/>
<path d="M 1165.0 290.0 L 1105.0 290.0 L 1105.0 117.0 L 1045.0 117.0" fill="none" stroke="#666" stroke-width="2" opacity="0.72" marker-end="url(#arrow)"/>
<path d="M 1045.0 117.0 L 1152.5 117.0 L 1152.5 117.0 L 1260.0 117.0" fill="none" stroke="#666" stroke-width="2" opacity="0.72" marker-end="url(#arrow)"/>
<rect x="50" y="82" width="130" height="70" rx="12" fill="#E8F5E9" stroke="#82B366" stroke-width="2" filter="url(#cardShadow)"/>
<rect x="95.0" y="92" width="40" height="20" rx="10" fill="#ffffff" stroke="#82B366" stroke-width="1.4"/>
<text x="115.0" y="106" text-anchor="middle" font-family="Arial, sans-serif" font-size="10" font-weight="700" fill="#333">USR</text>
<text x="115.0" y="131" text-anchor="middle" font-family="Arial, sans-serif" font-size="13" font-weight="700" fill="#222">LINE 使用者</text>
<text x="115.0" y="150" text-anchor="middle" font-family="Arial, sans-serif" font-size="11" fill="#444">手機提問</text>
<rect x="240" y="82" width="150" height="70" rx="12" fill="#E8F5E9" stroke="#82B366" stroke-width="2" filter="url(#cardShadow)"/>
<rect x="291.0" y="92" width="48" height="20" rx="10" fill="#ffffff" stroke="#82B366" stroke-width="1.4"/>
<text x="315.0" y="106" text-anchor="middle" font-family="Arial, sans-serif" font-size="10" font-weight="700" fill="#333">LINE</text>
<text x="315.0" y="131" text-anchor="middle" font-family="Arial, sans-serif" font-size="13" font-weight="700" fill="#222">LINE Bridge</text>
<text x="315.0" y="150" text-anchor="middle" font-family="Arial, sans-serif" font-size="11" fill="#444">Webhook/Auth/FIFO</text>
<rect x="450" y="82" width="160" height="70" rx="12" fill="#DAE8FC" stroke="#6C8EBF" stroke-width="2" filter="url(#cardShadow)"/>
<rect x="514.0" y="92" width="32" height="20" rx="10" fill="#ffffff" stroke="#6C8EBF" stroke-width="1.4"/>
<text x="530.0" y="106" text-anchor="middle" font-family="Arial, sans-serif" font-size="10" font-weight="700" fill="#333">AI</text>
<text x="530.0" y="131" text-anchor="middle" font-family="Arial, sans-serif" font-size="13" font-weight="700" fill="#222">Codex tmux Runtime</text>
<text x="530.0" y="150" text-anchor="middle" font-family="Arial, sans-serif" font-size="11" fill="#444">推理與工具調度</text>
<rect x="690" y="82" width="170" height="70" rx="12" fill="#DAE8FC" stroke="#6C8EBF" stroke-width="2" filter="url(#cardShadow)"/>
<rect x="755.0" y="92" width="40" height="20" rx="10" fill="#ffffff" stroke="#6C8EBF" stroke-width="1.4"/>
<text x="775.0" y="106" text-anchor="middle" font-family="Arial, sans-serif" font-size="10" font-weight="700" fill="#333">STD</text>
<text x="775.0" y="131" text-anchor="middle" font-family="Arial, sans-serif" font-size="13" font-weight="700" fill="#222">Standard Workflow 1.0</text>
<text x="775.0" y="150" text-anchor="middle" font-family="Arial, sans-serif" font-size="11" fill="#444">單一標準流程</text>
<rect x="970" y="82" width="150" height="70" rx="12" fill="#E8F5E9" stroke="#82B366" stroke-width="2" filter="url(#cardShadow)"/>
<rect x="1029.0" y="92" width="32" height="20" rx="10" fill="#ffffff" stroke="#82B366" stroke-width="1.4"/>
<text x="1045.0" y="106" text-anchor="middle" font-family="Arial, sans-serif" font-size="10" font-weight="700" fill="#333">MD</text>
<text x="1045.0" y="131" text-anchor="middle" font-family="Arial, sans-serif" font-size="13" font-weight="700" fill="#222">Response File</text>
<text x="1045.0" y="150" text-anchor="middle" font-family="Arial, sans-serif" font-size="11" fill="#444">Markdown contract</text>
<rect x="1190" y="82" width="140" height="70" rx="12" fill="#E8F5E9" stroke="#82B366" stroke-width="2" filter="url(#cardShadow)"/>
<rect x="1236.0" y="92" width="48" height="20" rx="10" fill="#ffffff" stroke="#82B366" stroke-width="1.4"/>
<text x="1260.0" y="106" text-anchor="middle" font-family="Arial, sans-serif" font-size="10" font-weight="700" fill="#333">FLEX</text>
<text x="1260.0" y="131" text-anchor="middle" font-family="Arial, sans-serif" font-size="13" font-weight="700" fill="#222">LINE Flex 回覆</text>
<text x="1260.0" y="150" text-anchor="middle" font-family="Arial, sans-serif" font-size="11" fill="#444">手機友善輸出</text>
<rect x="80" y="250" width="160" height="80" rx="12" fill="#FFF2CC" stroke="#D6B656" stroke-width="2" filter="url(#cardShadow)"/>
<rect x="136.0" y="260" width="48" height="20" rx="10" fill="#ffffff" stroke="#D6B656" stroke-width="1.4"/>
<text x="160.0" y="274" text-anchor="middle" font-family="Arial, sans-serif" font-size="10" font-weight="700" fill="#333">STDY</text>
<text x="160.0" y="299" text-anchor="middle" font-family="Arial, sans-serif" font-size="13" font-weight="700" fill="#222">單股 Study</text>
<text x="160.0" y="318" text-anchor="middle" font-family="Arial, sans-serif" font-size="10.5" fill="#444">daily-decision + signal</text>
<rect x="310" y="250" width="160" height="80" rx="12" fill="#FFF2CC" stroke="#D6B656" stroke-width="2" filter="url(#cardShadow)"/>
<rect x="370.0" y="260" width="40" height="20" rx="10" fill="#ffffff" stroke="#D6B656" stroke-width="1.4"/>
<text x="390.0" y="274" text-anchor="middle" font-family="Arial, sans-serif" font-size="10" font-weight="700" fill="#333">MCP</text>
<text x="390.0" y="299" text-anchor="middle" font-family="Arial, sans-serif" font-size="13" font-weight="700" fill="#222">CLI / MCP Tools</text>
<text x="390.0" y="318" text-anchor="middle" font-family="Arial, sans-serif" font-size="11" fill="#444">低 token evidence</text>
<rect x="570" y="250" width="180" height="80" rx="12" fill="#FFE6CC" stroke="#D79B00" stroke-width="2" filter="url(#cardShadow)"/>
<rect x="640.0" y="260" width="40" height="20" rx="10" fill="#ffffff" stroke="#D79B00" stroke-width="1.4"/>
<text x="660.0" y="274" text-anchor="middle" font-family="Arial, sans-serif" font-size="10" font-weight="700" fill="#333">MVP</text>
<text x="660.0" y="299" text-anchor="middle" font-family="Arial, sans-serif" font-size="13" font-weight="700" fill="#222">R18H6_VOL_exit_only</text>
<text x="660.0" y="318" text-anchor="middle" font-family="Arial, sans-serif" font-size="11" fill="#444">唯一 MVP 策略</text>
<rect x="830" y="250" width="160" height="80" rx="12" fill="#FFE6CC" stroke="#D79B00" stroke-width="2" filter="url(#cardShadow)"/>
<rect x="886.0" y="260" width="48" height="20" rx="10" fill="#ffffff" stroke="#D79B00" stroke-width="1.4"/>
<text x="910.0" y="274" text-anchor="middle" font-family="Arial, sans-serif" font-size="10" font-weight="700" fill="#333">RISK</text>
<text x="910.0" y="299" text-anchor="middle" font-family="Arial, sans-serif" font-size="13" font-weight="700" fill="#222">成本 / 部位控管</text>
<text x="910.0" y="318" text-anchor="middle" font-family="Arial, sans-serif" font-size="11" fill="#444">手續費與風險</text>
<rect x="1080" y="250" width="170" height="80" rx="12" fill="#FFE6CC" stroke="#D79B00" stroke-width="2" filter="url(#cardShadow)"/>
<rect x="1149.0" y="260" width="32" height="20" rx="10" fill="#ffffff" stroke="#D79B00" stroke-width="1.4"/>
<text x="1165.0" y="274" text-anchor="middle" font-family="Arial, sans-serif" font-size="10" font-weight="700" fill="#333">GO</text>
<text x="1165.0" y="299" text-anchor="middle" font-family="Arial, sans-serif" font-size="13" font-weight="700" fill="#222">交易結論</text>
<text x="1165.0" y="318" text-anchor="middle" font-family="Arial, sans-serif" font-size="11" fill="#444">觀察 / 可進 / 不追</text>
<rect x="80" y="450" width="170" height="80" rx="12" fill="#F8CECC" stroke="#B85450" stroke-width="2" filter="url(#cardShadow)"/>
<rect x="149.0" y="460" width="32" height="20" rx="10" fill="#ffffff" stroke="#B85450" stroke-width="1.4"/>
<text x="165.0" y="474" text-anchor="middle" font-family="Arial, sans-serif" font-size="10" font-weight="700" fill="#333">SJ</text>
<text x="165.0" y="499" text-anchor="middle" font-family="Arial, sans-serif" font-size="13" font-weight="700" fill="#222">SinoPac Shioaji</text>
<text x="165.0" y="518" text-anchor="middle" font-family="Arial, sans-serif" font-size="11" fill="#444">股價/量/K棒/快照</text>
<rect x="340" y="450" width="170" height="80" rx="12" fill="#F8CECC" stroke="#B85450" stroke-width="2" filter="url(#cardShadow)"/>
<rect x="399.0" y="460" width="52" height="20" rx="10" fill="#ffffff" stroke="#B85450" stroke-width="1.4"/>
<text x="425.0" y="474" text-anchor="middle" font-family="Arial, sans-serif" font-size="10" font-weight="700" fill="#333">CHAIN</text>
<text x="425.0" y="499" text-anchor="middle" font-family="Arial, sans-serif" font-size="13" font-weight="700" fill="#222">ic.tpex 產業鏈</text>
<text x="425.0" y="515" text-anchor="middle" font-family="Arial, sans-serif" font-size="10.5" fill="#444">chain heat</text>
<text x="425.0" y="529" text-anchor="middle" font-family="Arial, sans-serif" font-size="10.5" fill="#444">peer sync</text>
<rect x="600" y="450" width="180" height="80" rx="12" fill="#F8CECC" stroke="#B85450" stroke-width="2" filter="url(#cardShadow)"/>
<rect x="674.0" y="460" width="32" height="20" rx="10" fill="#ffffff" stroke="#B85450" stroke-width="1.4"/>
<text x="690.0" y="474" text-anchor="middle" font-family="Arial, sans-serif" font-size="10" font-weight="700" fill="#333">FB</text>
<text x="690.0" y="499" text-anchor="middle" font-family="Arial, sans-serif" font-size="13" font-weight="700" fill="#222">Fallback Data</text>
<text x="690.0" y="518" text-anchor="middle" font-family="Arial, sans-serif" font-size="10.5" fill="#444">FinMind/Fugle/TWSE/TPEx</text>
<rect x="80" y="670" width="170" height="80" rx="12" fill="#E1D5E7" stroke="#9673A6" stroke-width="2" filter="url(#cardShadow)"/>
<rect x="145.0" y="680" width="40" height="20" rx="10" fill="#ffffff" stroke="#9673A6" stroke-width="1.4"/>
<text x="165.0" y="694" text-anchor="middle" font-family="Arial, sans-serif" font-size="10" font-weight="700" fill="#333">RSS</text>
<text x="165.0" y="719" text-anchor="middle" font-family="Arial, sans-serif" font-size="13" font-weight="700" fill="#222">官方 SoundOn RSS</text>
<text x="165.0" y="738" text-anchor="middle" font-family="Arial, sans-serif" font-size="11" fill="#444">確認最新 EP</text>
<polygon points="415.0,660 500,710.0 415.0,760 330,710.0" fill="#E1D5E7" stroke="#9673A6" stroke-width="2" filter="url(#cardShadow)"/>
<rect x="400.0" y="670" width="30" height="20" rx="10" fill="#ffffff" stroke="#9673A6" stroke-width="1.4"/>
<text x="415.0" y="684" text-anchor="middle" font-family="Arial, sans-serif" font-size="10" font-weight="700" fill="#333">?</text>
<text x="415.0" y="709" text-anchor="middle" font-family="Arial, sans-serif" font-size="13" font-weight="700" fill="#222">whatmkreallysaid?</text>
<text x="415.0" y="728" text-anchor="middle" font-family="Arial, sans-serif" font-size="11" fill="#444">有同集逐字稿?</text>
<rect x="590" y="625" width="190" height="80" rx="12" fill="#E1D5E7" stroke="#9673A6" stroke-width="2" filter="url(#cardShadow)"/>
<rect x="665.0" y="635" width="40" height="20" rx="10" fill="#ffffff" stroke="#9673A6" stroke-width="1.4"/>
<text x="685.0" y="649" text-anchor="middle" font-family="Arial, sans-serif" font-size="10" font-weight="700" fill="#333">TXT</text>
<text x="685.0" y="674" text-anchor="middle" font-family="Arial, sans-serif" font-size="13" font-weight="700" fill="#222">whatmkreallysaid.com</text>
<text x="685.0" y="693" text-anchor="middle" font-family="Arial, sans-serif" font-size="11" fill="#444">首選逐字稿</text>
<rect x="590" y="755" width="190" height="80" rx="12" fill="#E1D5E7" stroke="#9673A6" stroke-width="2" filter="url(#cardShadow)"/>
<rect x="665.0" y="765" width="40" height="20" rx="10" fill="#ffffff" stroke="#9673A6" stroke-width="1.4"/>
<text x="685.0" y="779" text-anchor="middle" font-family="Arial, sans-serif" font-size="10" font-weight="700" fill="#333">STT</text>
<text x="685.0" y="804" text-anchor="middle" font-family="Arial, sans-serif" font-size="13" font-weight="700" fill="#222">stock-data worker</text>
<text x="685.0" y="823" text-anchor="middle" font-family="Arial, sans-serif" font-size="11" fill="#444">本機轉錄最新 EP</text>
<path d="M850,769 C850,753 1020,753 1020,769 L1020,821 C1020,837 850,837 850,821 Z" fill="#FCE5CD" stroke="#D79B00" stroke-width="2" filter="url(#cardShadow)"/>
<ellipse cx="935.0" cy="769" rx="85.0" ry="14" fill="#FCE5CD" stroke="#D79B00" stroke-width="2"/>
<rect x="919.0" y="765" width="32" height="20" rx="10" fill="#ffffff" stroke="#D79B00" stroke-width="1.4"/>
<text x="935.0" y="779" text-anchor="middle" font-family="Arial, sans-serif" font-size="10" font-weight="700" fill="#333">S3</text>
<text x="935.0" y="804" text-anchor="middle" font-family="Arial, sans-serif" font-size="13" font-weight="700" fill="#222">AWS S3 Transcript</text>
<text x="935.0" y="820" text-anchor="middle" font-family="Arial, sans-serif" font-size="10.5" fill="#444">latest.json</text>
<text x="935.0" y="834" text-anchor="middle" font-family="Arial, sans-serif" font-size="10.5" fill="#444">transcript JSON</text>
<rect x="1100" y="690" width="180" height="80" rx="12" fill="#E1D5E7" stroke="#9673A6" stroke-width="2" filter="url(#cardShadow)"/>
<rect x="1166.0" y="700" width="48" height="20" rx="10" fill="#ffffff" stroke="#9673A6" stroke-width="1.4"/>
<text x="1190.0" y="714" text-anchor="middle" font-family="Arial, sans-serif" font-size="10" font-weight="700" fill="#333">HEAT</text>
<text x="1190.0" y="739" text-anchor="middle" font-family="Arial, sans-serif" font-size="13" font-weight="700" fill="#222">題材熱度摘要</text>
<text x="1190.0" y="758" text-anchor="middle" font-family="Arial, sans-serif" font-size="11" fill="#444">產業關鍵字/敘事</text>
</svg>